{
  "accessors": [
    {
      "bufferView": 2,
      "componentType": 5126,
      "count": 32360,
      "max": [
        1.1005690097808838,
        0.20935900509357452,
        1.0401270389556885
      ],
      "min": [
        -1.7018150091171265,
        -1.6143929958343506,
        -0.7287219762802124
      ],
      "type": "VEC3"
    },
    {
      "bufferView": 2,
      "byteOffset": 388320,
      "componentType": 5126,
      "count": 32360,
      "max": [
        0.99998080730438232,
        0.9995155930519104,
        0.99989533424377441
      ],
      "min": [
        -0.99984800815582275,
        -0.9999815821647644,
        -0.99967986345291138
      ],
      "type": "VEC3"
    },
    {
      "bufferView": 3,
      "componentType": 5126,
      "count": 32360,
      "max": [
        0.99994713068008423,
        0.99995577335357666,
        0.99997514486312866,
        1
      ],
      "min": [
        -0.99978429079055786,
        -0.99969947338104248,
        -0.99994063377380371,
        -1
      ],
      "type": "VEC4"
    },
    {
      "bufferView": 1,
      "componentType": 5126,
      "count": 32360,
      "max": [
        0.95909202098846436,
        0.99989598989486694
      ],
      "min": [
        1.7000000298139639e-05,
        6.5000000176951289e-05
      ],
      "type": "VEC2"
    },
    {
      "bufferView": 0,
      "componentType": 5125,
      "count": 171222,
      "max": [
        32359
      ],
      "min": [
        0
      ],
      "type": "SCALAR"
    }
  ],
  "asset": {
    "extras": {
      "author": "alban (https://sketchfab.com/alban)",
      "license": "CC-BY-4.0 (http://creativecommons.org/licenses/by/4.0/)",
      "source": "https://sketchfab.com/3d-models/sashimi-plate-2ca42dd07637431ea6f1b7dda343df82",
      "title": "Sashimi plate"
    },
    "generator": "Sketchfab-5.47.0",
    "version": "2.0"
  },
  "bufferViews": [
    {
      "buffer": 0,
      "byteLength": 684888,
      "byteOffset": 0,
      "name": "floatBufferViews",
      "target": 34963
    },
    {
      "buffer": 0,
      "byteLength": 258880,
      "byteOffset": 684888,
      "byteStride": 8,
      "name": "floatBufferViews",
      "target": 34962
    },
    {
      "buffer": 0,
      "byteLength": 776640,
      "byteOffset": 943768,
      "byteStride": 12,
      "name": "floatBufferViews",
      "target": 34962
    },
    {
      "buffer": 0,
      "byteLength": 517760,
      "byteOffset": 1720408,
      "byteStride": 16,
      "name": "floatBufferViews",
      "target": 34962
    }
  ],
  "buffers": [
    {
      "byteLength": 2238168,
      "uri": "scene.bin"
    }
  ],
  "extensionsUsed": [
    "KHR_materials_unlit"
  ],
  "images": [
    {
      "uri": "textures/model_baseColor.jpeg"
    }
  ],
  "materials": [
    {
      "doubleSided": true,
      "emissiveFactor": [
        0,
        0,
        0
      ],
      "extensions": {
        "KHR_materials_unlit": {}
      },
      "name": "model",
      "pbrMetallicRoughness": {
        "baseColorFactor": [
          1,
          1,
          1,
          1
        ],
        "baseColorTexture": {
          "index": 0,
          "texCoord": 0
        },
        "metallicFactor": 0,
        "roughnessFactor": 1
      }
    }
  ],
  "meshes": [
    {
      "primitives": [
        {
          "attributes": {
            "NORMAL": 1,
            "POSITION": 0,
            "TANGENT": 2,
            "TEXCOORD_0": 3
          },
          "indices": 4,
          "material": 0,
          "mode": 4
        }
      ]
    }
  ],
  "nodes": [
    {
      "children": [
        1
      ],
      "name": "RootNode (gltf orientation matrix)",
      "rotation": [
        -0.70710678118654746,
        -0,
        -0,
        0.70710678118654757
      ]
    },
    {
      "children": [
        2
      ],
      "matrix": [
        0.92923158407211304,
        0.17083397507667542,
        0.32763451337814331,
        0,
        -0.024874703958630562,
        0.91361290216445923,
        -0.4058234691619873,
        0,
        -0.36865955591201782,
        0.36895418167114258,
        0.85320746898651123,
        0,
        0.018651241436600685,
        -0.06677757203578949,
        -0.16374471783638,
        1
      ],
      "name": "RootNode (model correction matrix)"
    },
    {
      "children": [
        3
      ],
      "name": "model.obj.cleaner.materialmerger.gles"
    },
    {
      "mesh": 0,
      "name": ""
    }
  ],
  "samplers": [
    {
      "magFilter": 9729,
      "minFilter": 9987,
      "wrapS": 10497,
      "wrapT": 10497
    }
  ],
  "scene": 0,
  "scenes": [
    {
      "name": "OSG_Scene",
      "nodes": [
        0
      ]
    }
  ],
  "textures": [
    {
      "sampler": 0,
      "source": 0
    }
  ]
}

